adventprofmm_reg_krn.ufo
<glyph name="quotedbl" format="1">
  <advance width="261"/>
  <unicode hex="0022"/>
  <outline>
    <contour>
      <point x="163" y="701" type="curve"/>
      <point x="177" y="586" type="line"/>
      <point x="217" y="586" type="line"/>
      <point x="231" y="701" type="line"/>
      <point x="231" y="748"/>
      <point x="163" y="748"/>
    </contour>
    <contour>
      <point x="28" y="701" type="curve"/>
      <point x="42" y="586" type="line"/>
      <point x="81" y="586" type="line"/>
      <point x="96" y="701" type="line"/>
      <point x="96" y="748"/>
      <point x="28" y="748"/>
    </contour>
  </outline>
</glyph>
<glyph name="one" format="1">
  <advance width="235"/>
  <unicode hex="0031"/>
  <outline>
    <contour>
      <point x="13" y="620" type="curve"/>
      <point x="27" y="581" type="line"/>
      <point x="60" y="585"/>
      <point x="115" y="613"/>
      <point x="139" y="632" type="curve"/>
      <point x="139" y="0" type="line"/>
      <point x="192" y="0" type="line"/>
      <point x="192" y="698" type="line"/>
      <point x="138" y="698" type="line"/>
      <point x="91" y="641"/>
      <point x="13" y="620"/>
    </contour>
  </outline>
</glyph>
<glyph name="question" format="1">
  <advance width="404"/>
  <unicode hex="003F"/>
  <outline>
    <contour>
      <point x="25" y="530" type="curve"/>
      <point x="82" y="530" type="line"/>
      <point x="82" y="616"/>
      <point x="142" y="656"/>
      <point x="203" y="654" type="curve" smooth="yes"/>
      <point x="261" y="652"/>
      <point x="320" y="612"/>
      <point x="320" y="533" type="curve" smooth="yes"/>
      <point x="320" y="468"/>
      <point x="280" y="431"/>
      <point x="242" y="388" type="curve" smooth="yes"/>
      <point x="205" y="345"/>
      <point x="165" y="299"/>
      <point x="165" y="211" type="curve" smooth="yes"/>
      <point x="165" y="119" type="line"/>
      <point x="216" y="119" type="line"/>
      <point x="216" y="147"/>
      <point x="216" y="177"/>
      <point x="216" y="206" type="curve" smooth="yes"/>
      <point x="216" y="289"/>
      <point x="254" y="320"/>
      <point x="293" y="365" type="curve" smooth="yes"/>
      <point x="337" y="417"/>
      <point x="375" y="462"/>
      <point x="375" y="536" type="curve" smooth="yes"/>
      <point x="375" y="642"/>
      <point x="291" y="705"/>
      <point x="203" y="707" type="curve" smooth="yes"/>
      <point x="115" y="708"/>
      <point x="25" y="652"/>
    </contour>
    <contour>
      <point x="192" y="57" type="curve" smooth="yes"/>
      <point x="173" y="57"/>
      <point x="157" y="43"/>
      <point x="157" y="24" type="curve" smooth="yes"/>
      <point x="157" y="5"/>
      <point x="173" y="-9"/>
      <point x="192" y="-9" type="curve" smooth="yes"/>
      <point x="209" y="-9"/>
      <point x="225" y="5"/>
      <point x="225" y="24" type="curve" smooth="yes"/>
      <point x="225" y="43"/>
      <point x="209" y="57"/>
    </contour>
  </outline>
</glyph>
<glyph name="Q" format="1">
  <advance width="490"/>
  <unicode hex="0051"/>
  <outline>
    <contour>
      <point x="34" y="506" type="curve" smooth="yes"/>
      <point x="34" y="185" type="line" smooth="yes"/>
      <point x="34" y="56"/>
      <point x="127" y="-11"/>
      <point x="245" y="-11" type="curve" smooth="yes"/>
      <point x="368" y="-11"/>
      <point x="454" y="64"/>
      <point x="454" y="185" type="curve" smooth="yes"/>
      <point x="454" y="505" type="line" smooth="yes"/>
      <point x="454" y="635"/>
      <point x="378" y="714"/>
      <point x="246" y="714" type="curve" smooth="yes"/>
      <point x="114" y="714"/>
      <point x="34" y="642"/>
    </contour>
    <contour>
      <point x="90" y="186" type="curve" smooth="yes"/>
      <point x="90" y="515" type="line" smooth="yes"/>
      <point x="90" y="612"/>
      <point x="151" y="661"/>
      <point x="243" y="661" type="curve" smooth="yes"/>
      <point x="337" y="661"/>
      <point x="399" y="612"/>
      <point x="399" y="515" type="curve" smooth="yes"/>
      <point x="399" y="186" type="line" smooth="yes"/>
      <point x="399" y="88"/>
      <point x="335" y="42"/>
      <point x="243" y="42" type="curve" smooth="yes"/>
      <point x="155" y="42"/>
      <point x="90" y="90"/>
    </contour>
    <contour>
      <point x="270" y="50" type="curve" smooth="yes"/>
      <point x="270" y="90"/>
      <point x="270" y="132"/>
      <point x="270" y="173" type="curve"/>
      <point x="214" y="173" type="line"/>
      <point x="214" y="132"/>
      <point x="214" y="91"/>
      <point x="214" y="51" type="curve" smooth="yes"/>
      <point x="214" y="-61"/>
      <point x="272" y="-107"/>
      <point x="389" y="-107" type="curve"/>
      <point x="395" y="-61" type="line"/>
      <point x="314" y="-62"/>
      <point x="270" y="-33"/>
    </contour>
  </outline>
</glyph>
<glyph name="q" format="1">
  <advance width="440"/>
  <unicode hex="0071"/>
  <outline>
    <contour>
      <point x="343" y="62" type="curve"/>
      <point x="343" y="-198" type="line"/>
      <point x="400" y="-211" type="line"/>
      <point x="400" y="498" type="line"/>
      <point x="343" y="498" type="line"/>
      <point x="343" y="452" type="line"/>
      <point x="299" y="488"/>
      <point x="249" y="507"/>
      <point x="201" y="509" type="curve" smooth="yes"/>
      <point x="92" y="514"/>
      <point x="31" y="451"/>
      <point x="31" y="345" type="curve" smooth="yes"/>
      <point x="31" y="176" type="line" smooth="yes"/>
      <point x="31" y="54"/>
      <point x="90" y="-11"/>
      <point x="202" y="-11" type="curve" smooth="yes"/>
      <point x="262" y="-11"/>
      <point x="320" y="21"/>
    </contour>
    <contour>
      <point x="343" y="393" type="curve"/>
      <point x="343" y="173" type="line" smooth="yes"/>
      <point x="343" y="88"/>
      <point x="281" y="41"/>
      <point x="205" y="41" type="curve" smooth="yes"/>
      <point x="129" y="41"/>
      <point x="87" y="84"/>
      <point x="87" y="167" type="curve" smooth="yes"/>
      <point x="87" y="343" type="line" smooth="yes"/>
      <point x="87" y="433"/>
      <point x="150" y="463"/>
      <point x="213" y="459" type="curve" smooth="yes"/>
      <point x="257" y="455"/>
      <point x="314" y="435"/>
    </contour>
  </outline>
</glyph>
<glyph name="asciitilde" format="1">
  <advance width="375"/>
  <unicode hex="007E"/>
  <outline>
    <contour>
      <point x="340" y="305" type="curve"/>
      <point x="315" y="346" type="line"/>
      <point x="299" y="329"/>
      <point x="279" y="318"/>
      <point x="254" y="317" type="curve" smooth="yes"/>
      <point x="207" y="316"/>
      <point x="163" y="353"/>
      <point x="113" y="353" type="curve" smooth="yes"/>
      <point x="87" y="353"/>
      <point x="60" y="343"/>
      <point x="31" y="312" type="curve"/>
      <point x="54" y="271" type="line"/>
      <point x="78" y="293"/>
      <point x="100" y="299"/>
      <point x="121" y="298" type="curve" smooth="yes"/>
      <point x="166" y="296"/>
      <point x="209" y="262"/>
      <point x="256" y="262" type="curve" smooth="yes"/>
      <point x="281" y="261"/>
      <point x="309" y="272"/>
    </contour>
  </outline>
</glyph>
<glyph name="Ecircumflex" format="1">
  <advance width="405"/>
  <unicode hex="00CA"/>
  <outline>
    <contour>
      <point x="41" y="0" type="line"/>
      <point x="372" y="0" type="line"/>
      <point x="372" y="50" type="line"/>
      <point x="97" y="50" type="line"/>
      <point x="97" y="356" type="line"/>
      <point x="269" y="356" type="line"/>
      <point x="287" y="411" type="line"/>
      <point x="97" y="411" type="line"/>
      <point x="97" y="646" type="line"/>
      <point x="374" y="646" type="line"/>
      <point x="374" y="698" type="line"/>
      <point x="41" y="698" type="line"/>
    </contour>
    <contour>
      <point x="77" y="781" type="line"/>
      <point x="117" y="743" type="line"/>
      <point x="209" y="833" type="line"/>
      <point x="298" y="745" type="line"/>
      <point x="338" y="782" type="line"/>
      <point x="209" y="909" type="line"/>
    </contour>
  </outline>
</glyph>
<glyph name="Ugrave" format="1">
  <advance width="494"/>
  <unicode hex="00D9"/>
  <outline>
    <contour>
      <point x="455" y="185" type="curve" smooth="yes"/>
      <point x="455" y="698" type="line"/>
      <point x="400" y="698" type="line"/>
      <point x="400" y="186" type="line" smooth="yes"/>
      <point x="400" y="140"/>
      <point x="385" y="106"/>
      <point x="361" y="81" type="curve" smooth="yes"/>
      <point x="334" y="54"/>
      <point x="294" y="42"/>
      <point x="246" y="42" type="curve" smooth="yes"/>
      <point x="204" y="42"/>
      <point x="166" y="53"/>
      <point x="140" y="74" type="curve" smooth="yes"/>
      <point x="109" y="98"/>
      <point x="92" y="135"/>
      <point x="92" y="186" type="curve" smooth="yes"/>
      <point x="92" y="698" type="line"/>
      <point x="37" y="698" type="line"/>
      <point x="37" y="185" type="line" smooth="yes"/>
      <point x="37" y="118"/>
      <point x="57" y="68"/>
      <point x="98" y="36" type="curve" smooth="yes"/>
      <point x="140" y="4"/>
      <point x="189" y="-11"/>
      <point x="247" y="-11" type="curve" smooth="yes"/>
      <point x="303" y="-11"/>
      <point x="352" y="4"/>
      <point x="393" y="36" type="curve" smooth="yes"/>
      <point x="434" y="68"/>
      <point x="455" y="118"/>
    </contour>
    <contour>
      <point x="177" y="822" type="curve"/>
      <point x="230" y="743" type="line"/>
      <point x="265" y="743" type="line"/>
      <point x="228" y="849" type="line" smooth="yes"/>
      <point x="221" y="868"/>
      <point x="202" y="879"/>
      <point x="184" y="869" type="curve" smooth="yes"/>
      <point x="166" y="859"/>
      <point x="164" y="836"/>
    </contour>
  </outline>
</glyph>
<glyph name="igrave" format="1">
  <advance width="176"/>
  <unicode hex="00EC"/>
  <outline>
    <contour>
      <point x="83" y="0" type="line"/>
      <point x="138" y="0" type="line"/>
      <point x="138" y="499" type="line"/>
      <point x="83" y="499" type="line"/>
    </contour>
    <contour>
      <point x="33" y="623" type="curve"/>
      <point x="86" y="543" type="line"/>
      <point x="121" y="543" type="line"/>
      <point x="84" y="651" type="line" smooth="yes"/>
      <point x="77" y="669"/>
      <point x="58" y="680"/>
      <point x="40" y="671" type="curve" smooth="yes"/>
      <point x="22" y="661"/>
      <point x="20" y="638"/>
    </contour>
  </outline>
</glyph>
<glyph name="ograve" format="1">
  <advance width="427"/>
  <unicode hex="00F2"/>
  <outline>
    <contour>
      <point x="397" y="184" type="curve" smooth="yes"/>
      <point x="397" y="315" type="line" smooth="yes"/>
      <point x="397" y="436"/>
      <point x="333" y="510"/>
      <point x="214" y="510" type="curve" smooth="yes"/>
      <point x="95" y="510"/>
      <point x="28" y="442"/>
      <point x="28" y="315" type="curve" smooth="yes"/>
      <point x="28" y="184" type="line" smooth="yes"/>
      <point x="28" y="75"/>
      <point x="92" y="-10"/>
      <point x="216" y="-10" type="curve" smooth="yes"/>
      <point x="339" y="-10"/>
      <point x="397" y="71"/>
    </contour>
    <contour>
      <point x="340" y="315" type="curve" smooth="yes"/>
      <point x="340" y="174" type="line" smooth="yes"/>
      <point x="340" y="92"/>
      <point x="299" y="40"/>
      <point x="216" y="40" type="curve" smooth="yes"/>
      <point x="135" y="40"/>
      <point x="84" y="94"/>
      <point x="84" y="174" type="curve" smooth="yes"/>
      <point x="84" y="315" type="line" smooth="yes"/>
      <point x="84" y="411"/>
      <point x="128" y="460"/>
      <point x="216" y="460" type="curve" smooth="yes"/>
      <point x="302" y="460"/>
      <point x="340" y="411"/>
    </contour>
    <contour>
      <point x="140" y="627" type="curve"/>
      <point x="193" y="548" type="line"/>
      <point x="228" y="548" type="line"/>
      <point x="191" y="654" type="line" smooth="yes"/>
      <point x="184" y="673"/>
      <point x="164" y="684"/>
      <point x="147" y="674" type="curve" smooth="yes"/>
      <point x="129" y="664"/>
      <point x="127" y="641"/>
    </contour>
  </outline>
</glyph>
<glyph name="otilde" format="1">
  <advance width="429"/>
  <unicode hex="00F5"/>
  <outline>
    <contour>
      <point x="398" y="184" type="curve" smooth="yes"/>
      <point x="398" y="315" type="line" smooth="yes"/>
      <point x="398" y="436"/>
      <point x="334" y="510"/>
      <point x="215" y="510" type="curve" smooth="yes"/>
      <point x="96" y="510"/>
      <point x="29" y="442"/>
      <point x="29" y="315" type="curve" smooth="yes"/>
      <point x="29" y="184" type="line" smooth="yes"/>
      <point x="29" y="75"/>
      <point x="93" y="-10"/>
      <point x="217" y="-10" type="curve" smooth="yes"/>
      <point x="340" y="-10"/>
      <point x="398" y="71"/>
    </contour>
    <contour>
      <point x="341" y="315" type="curve" smooth="yes"/>
      <point x="341" y="174" type="line" smooth="yes"/>
      <point x="341" y="92"/>
      <point x="300" y="40"/>
      <point x="217" y="40" type="curve" smooth="yes"/>
      <point x="136" y="40"/>
      <point x="85" y="94"/>
      <point x="85" y="174" type="curve" smooth="yes"/>
      <point x="85" y="315" type="line" smooth="yes"/>
      <point x="85" y="411"/>
      <point x="129" y="460"/>
      <point x="217" y="460" type="curve" smooth="yes"/>
      <point x="303" y="460"/>
      <point x="341" y="411"/>
    </contour>
    <contour>
      <point x="344" y="581" type="curve"/>
      <point x="323" y="628" type="line"/>
      <point x="310" y="617"/>
      <point x="289" y="608"/>
      <point x="270" y="608" type="curve" smooth="yes"/>
      <point x="257" y="608"/>
      <point x="211" y="634"/>
      <point x="162" y="634" type="curve" smooth="yes"/>
      <point x="135" y="634"/>
      <point x="107" y="626"/>
      <point x="84" y="602" type="curve"/>
      <point x="106" y="555" type="line"/>
      <point x="120" y="566"/>
      <point x="133" y="574"/>
      <point x="152" y="575" type="curve" smooth="yes"/>
      <point x="182" y="577"/>
      <point x="226" y="551"/>
      <point x="272" y="551" type="curve" smooth="yes"/>
      <point x="296" y="551"/>
      <point x="321" y="559"/>
    </contour>
  </outline>
</glyph>
<glyph name="uacute" format="1">
  <advance width="437"/>
  <unicode hex="00FA"/>
  <outline>
    <contour>
      <point x="345" y="48" type="curve"/>
      <point x="345" y="0" type="line"/>
      <point x="401" y="0" type="line"/>
      <point x="401" y="499" type="line"/>
      <point x="345" y="499" type="line"/>
      <point x="345" y="172" type="line" smooth="yes"/>
      <point x="345" y="101"/>
      <point x="289" y="44"/>
      <point x="218" y="44" type="curve" smooth="yes"/>
      <point x="154" y="44"/>
      <point x="88" y="68"/>
      <point x="88" y="159" type="curve" smooth="yes"/>
      <point x="88" y="499" type="line"/>
      <point x="32" y="499" type="line"/>
      <point x="32" y="156" type="line" smooth="yes"/>
      <point x="32" y="43"/>
      <point x="95" y="-10"/>
      <point x="206" y="-10" type="curve" smooth="yes"/>
      <point x="256" y="-10"/>
      <point x="311" y="9"/>
    </contour>
    <contour>
      <point x="241" y="649" type="curve" smooth="yes"/>
      <point x="204" y="542" type="line"/>
      <point x="239" y="542" type="line"/>
      <point x="292" y="621" type="line"/>
      <point x="304" y="636"/>
      <point x="303" y="659"/>
      <point x="285" y="669" type="curve" smooth="yes"/>
      <point x="268" y="679"/>
      <point x="247" y="668"/>
    </contour>
  </outline>
</glyph>
<glyph name="ucircumflex" format="1">
  <advance width="438"/>
  <unicode hex="00FB"/>
  <outline>
    <contour>
      <point x="346" y="48" type="curve"/>
      <point x="346" y="0" type="line"/>
      <point x="402" y="0" type="line"/>
      <point x="402" y="499" type="line"/>
      <point x="346" y="499" type="line"/>
      <point x="346" y="172" type="line" smooth="yes"/>
      <point x="346" y="101"/>
      <point x="290" y="44"/>
      <point x="219" y="44" type="curve" smooth="yes"/>
      <point x="155" y="44"/>
      <point x="89" y="68"/>
      <point x="89" y="159" type="curve" smooth="yes"/>
      <point x="89" y="499" type="line"/>
      <point x="33" y="499" type="line"/>
      <point x="33" y="156" type="line" smooth="yes"/>
      <point x="33" y="43"/>
      <point x="96" y="-10"/>
      <point x="207" y="-10" type="curve" smooth="yes"/>
      <point x="257" y="-10"/>
      <point x="312" y="9"/>
    </contour>
    <contour>
      <point x="88" y="581" type="line"/>
      <point x="127" y="543" type="line"/>
      <point x="220" y="632" type="line"/>
      <point x="309" y="544" type="line"/>
      <point x="348" y="583" type="line"/>
      <point x="220" y="708" type="line"/>
    </contour>
  </outline>
</glyph>
<glyph name="Dcroat" format="1">
  <advance width="494"/>
  <unicode hex="0110"/>
  <outline>
    <contour>
      <point x="229" y="698" type="curve" smooth="yes"/>
      <point x="41" y="698" type="line"/>
      <point x="41" y="0" type="line"/>
      <point x="249" y="0" type="line" smooth="yes"/>
      <point x="390" y="0"/>
      <point x="460" y="67"/>
      <point x="460" y="199" type="curve" smooth="yes"/>
      <point x="460" y="473" type="line" smooth="yes"/>
      <point x="460" y="609"/>
      <point x="379" y="698"/>
    </contour>
    <contour>
      <point x="232" y="50" type="curve" smooth="yes"/>
      <point x="97" y="50" type="line"/>
      <point x="97" y="648" type="line"/>
      <point x="239" y="648" type="line" smooth="yes"/>
      <point x="355" y="648"/>
      <point x="404" y="574"/>
      <point x="404" y="488" type="curve" smooth="yes"/>
      <point x="404" y="189" type="line" smooth="yes"/>
      <point x="404" y="97"/>
      <point x="347" y="50"/>
    </contour>
    <contour>
      <point x="140" y="743" type="line"/>
      <point x="361" y="743" type="line"/>
      <point x="361" y="801" type="line"/>
      <point x="140" y="801" type="line"/>
    </contour>
  </outline>
</glyph>
<glyph name="Itilde" format="1">
  <advance width="270"/>
  <unicode hex="0128"/>
  <outline>
    <contour>
      <point x="42" y="649" type="line"/>
      <point x="109" y="647" type="line"/>
      <point x="109" y="0" type="line"/>
      <point x="165" y="0" type="line"/>
      <point x="165" y="698" type="line"/>
      <point x="42" y="698" type="line"/>
    </contour>
    <contour>
      <point x="265" y="771" type="curve"/>
      <point x="244" y="818" type="line"/>
      <point x="230" y="809"/>
      <point x="211" y="799"/>
      <point x="192" y="800" type="curve"/>
      <point x="178" y="799"/>
      <point x="131" y="824"/>
      <point x="83" y="825" type="curve" smooth="yes"/>
      <point x="57" y="825"/>
      <point x="28" y="817"/>
      <point x="5" y="793" type="curve"/>
      <point x="28" y="746" type="line"/>
      <point x="42" y="758"/>
      <point x="53" y="766"/>
      <point x="73" y="767" type="curve" smooth="yes"/>
      <point x="104" y="768"/>
      <point x="148" y="741"/>
      <point x="193" y="741" type="curve" smooth="yes"/>
      <point x="217" y="741"/>
      <point x="241" y="749"/>
    </contour>
  </outline>
</glyph>
<glyph name="imacron" format="1">
  <advance width="267"/>
  <unicode hex="012B"/>
  <outline>
    <contour>
      <point x="105" y="0" type="line"/>
      <point x="160" y="0" type="line"/>
      <point x="160" y="499" type="line"/>
      <point x="105" y="499" type="line"/>
    </contour>
    <contour>
      <point x="22" y="544" type="line"/>
      <point x="242" y="544" type="line"/>
      <point x="242" y="602" type="line"/>
      <point x="22" y="602" type="line"/>
    </contour>
  </outline>
</glyph>
<glyph name="Nacute" format="1">
  <advance width="574"/>
  <unicode hex="0143"/>
  <outline>
    <contour>
      <point x="532" y="698" type="line"/>
      <point x="475" y="698" type="line"/>
      <point x="475" y="102" type="line"/>
      <point x="97" y="698" type="line"/>
      <point x="41" y="698" type="line"/>
      <point x="41" y="0" type="line"/>
      <point x="97" y="0" type="line"/>
      <point x="97" y="595" type="line"/>
      <point x="475" y="0" type="line"/>
      <point x="532" y="0" type="line"/>
    </contour>
    <contour>
      <point x="300" y="858" type="curve" smooth="yes"/>
      <point x="262" y="751" type="line"/>
      <point x="298" y="751" type="line"/>
      <point x="351" y="831" type="line"/>
      <point x="363" y="845"/>
      <point x="362" y="868"/>
      <point x="344" y="878" type="curve" smooth="yes"/>
      <point x="327" y="888"/>
      <point x="306" y="877"/>
    </contour>
  </outline>
</glyph>
<glyph name="tcedilla" format="1">
  <advance width="265"/>
  <unicode hex="0163"/>
  <outline>
    <contour>
      <point x="111" y="132" type="curve" smooth="yes"/>
      <point x="111" y="447" type="line"/>
      <point x="207" y="447" type="line"/>
      <point x="231" y="499" type="line"/>
      <point x="111" y="499" type="line"/>
      <point x="111" y="698" type="line"/>
      <point x="55" y="698" type="line"/>
      <point x="55" y="132" type="line" smooth="yes"/>
      <point x="55" y="53"/>
      <point x="86" y="8"/>
      <point x="160" y="-13" type="curve"/>
      <point x="177" y="30" type="line"/>
      <point x="133" y="45"/>
      <point x="111" y="79"/>
    </contour>
    <contour>
      <point x="113" y="-44" type="curve"/>
      <point x="140" y="0" type="line"/>
      <point x="89" y="0" type="line"/>
      <point x="49" y="-69" type="line"/>
      <point x="63" y="-98" type="line"/>
      <point x="89" y="-96"/>
      <point x="114" y="-92"/>
      <point x="136" y="-91" type="curve" smooth="yes"/>
      <point x="170" y="-91"/>
      <point x="194" y="-98"/>
      <point x="194" y="-133" type="curve" smooth="yes"/>
      <point x="194" y="-173"/>
      <point x="163" y="-185"/>
      <point x="123" y="-184" type="curve" smooth="yes"/>
      <point x="97" y="-184"/>
      <point x="67" y="-178"/>
      <point x="40" y="-173" type="curve"/>
      <point x="33" y="-202"/>
      <point x="35" y="-193"/>
      <point x="28" y="-221" type="curve"/>
      <point x="32" y="-221"/>
      <point x="82" y="-233"/>
      <point x="130" y="-233" type="curve" smooth="yes"/>
      <point x="209" y="-233"/>
      <point x="245" y="-184"/>
      <point x="244" y="-135" type="curve" smooth="yes"/>
      <point x="244" y="-85"/>
      <point x="205" y="-35"/>
      <point x="140" y="-42" type="curve" smooth="yes"/>
      <point x="131" y="-43"/>
      <point x="122" y="-43"/>
    </contour>
  </outline>
</glyph>
<glyph name="uring" format="1">
  <advance width="438"/>
  <unicode hex="016F"/>
  <outline>
    <contour>
      <point x="346" y="48" type="curve"/>
      <point x="346" y="0" type="line"/>
      <point x="402" y="0" type="line"/>
      <point x="402" y="499" type="line"/>
      <point x="346" y="499" type="line"/>
      <point x="346" y="172" type="line" smooth="yes"/>
      <point x="346" y="101"/>
      <point x="290" y="44"/>
      <point x="219" y="44" type="curve" smooth="yes"/>
      <point x="155" y="44"/>
      <point x="89" y="68"/>
      <point x="89" y="159" type="curve" smooth="yes"/>
      <point x="89" y="499" type="line"/>
      <point x="33" y="499" type="line"/>
      <point x="33" y="156" type="line" smooth="yes"/>
      <point x="33" y="43"/>
      <point x="96" y="-10"/>
      <point x="207" y="-10" type="curve" smooth="yes"/>
      <point x="257" y="-10"/>
      <point x="312" y="9"/>
    </contour>
    <contour>
      <point x="218" y="727" type="curve" smooth="yes"/>
      <point x="155" y="727"/>
      <point x="104" y="676"/>
      <point x="104" y="614" type="curve" smooth="yes"/>
      <point x="104" y="551"/>
      <point x="155" y="499"/>
      <point x="218" y="499" type="curve" smooth="yes"/>
      <point x="281" y="499"/>
      <point x="331" y="551"/>
      <point x="331" y="614" type="curve" smooth="yes"/>
      <point x="331" y="676"/>
      <point x="281" y="727"/>
    </contour>
    <contour>
      <point x="218" y="683" type="curve" smooth="yes"/>
      <point x="257" y="683"/>
      <point x="287" y="652"/>
      <point x="287" y="614" type="curve" smooth="yes"/>
      <point x="287" y="575"/>
      <point x="257" y="543"/>
      <point x="218" y="543" type="curve" smooth="yes"/>
      <point x="180" y="543"/>
      <point x="148" y="575"/>
      <point x="148" y="614" type="curve" smooth="yes"/>
      <point x="148" y="652"/>
      <point x="180" y="683"/>
    </contour>
  </outline>
</glyph>
<glyph name="zcaron" format="1">
  <advance width="427"/>
  <unicode hex="017E"/>
  <outline>
    <contour>
      <point x="377" y="499" type="line"/>
      <point x="40" y="499" type="line"/>
      <point x="40" y="449" type="line"/>
      <point x="305" y="449" type="line"/>
      <point x="31" y="50" type="line"/>
      <point x="31" y="0" type="line"/>
      <point x="398" y="0" type="line"/>
      <point x="398" y="51" type="line"/>
      <point x="101" y="51" type="line"/>
      <point x="377" y="450" type="line"/>
    </contour>
    <contour>
      <point x="213" y="619" type="line"/>
      <point x="124" y="706" type="line"/>
      <point x="84" y="669" type="line"/>
      <point x="213" y="543" type="line"/>
      <point x="344" y="670" type="line"/>
      <point x="305" y="708" type="line"/>
    </contour>
  </outline>
</glyph>
<glyph name="Scommaaccent" format="1">
  <advance width="528"/>
  <unicode hex="0218"/>
  <outline>
    <contour>
      <point x="419" y="618" type="curve"/>
      <point x="437" y="670" type="line"/>
      <point x="390" y="695"/>
      <point x="332" y="708"/>
      <point x="274" y="708" type="curve" smooth="yes"/>
      <point x="218" y="707"/>
      <point x="164" y="694"/>
      <point x="125" y="665" type="curve" smooth="yes"/>
      <point x="89" y="639"/>
      <point x="64" y="601"/>
      <point x="61" y="548" type="curve" smooth="yes"/>
      <point x="56" y="448"/>
      <point x="129" y="403"/>
      <point x="213" y="366" type="curve" smooth="yes"/>
      <point x="246" y="352"/>
      <point x="281" y="339"/>
      <point x="313" y="324" type="curve" smooth="yes"/>
      <point x="385" y="293"/>
      <point x="443" y="254"/>
      <point x="438" y="177" type="curve" smooth="yes"/>
      <point x="437" y="141"/>
      <point x="424" y="112"/>
      <point x="403" y="91" type="curve" smooth="yes"/>
      <point x="369" y="56"/>
      <point x="314" y="42"/>
      <point x="259" y="42" type="curve" smooth="yes"/>
      <point x="203" y="42"/>
      <point x="159" y="63"/>
      <point x="130" y="84" type="curve" smooth="yes"/>
      <point x="83" y="120"/>
      <point x="72" y="161"/>
      <point x="72" y="161" type="curve"/>
      <point x="26" y="132" type="line"/>
      <point x="26" y="132"/>
      <point x="45" y="78"/>
      <point x="103" y="35" type="curve" smooth="yes"/>
      <point x="139" y="10"/>
      <point x="191" y="-12"/>
      <point x="264" y="-12" type="curve" smooth="yes"/>
      <point x="327" y="-12"/>
      <point x="392" y="4"/>
      <point x="437" y="43" type="curve" smooth="yes"/>
      <point x="473" y="74"/>
      <point x="497" y="118"/>
      <point x="499" y="179" type="curve" smooth="yes"/>
      <point x="502" y="282"/>
      <point x="425" y="334"/>
      <point x="339" y="373" type="curve" smooth="yes"/>
      <point x="304" y="389"/>
      <point x="267" y="404"/>
      <point x="234" y="418" type="curve" smooth="yes"/>
      <point x="168" y="447"/>
      <point x="116" y="480"/>
      <point x="118" y="541" type="curve" smooth="yes"/>
      <point x="121" y="580"/>
      <point x="139" y="607"/>
      <point x="166" y="625" type="curve" smooth="yes"/>
      <point x="194" y="645"/>
      <point x="234" y="654"/>
      <point x="276" y="654" type="curve" smooth="yes"/>
      <point x="325" y="654"/>
      <point x="378" y="641"/>
    </contour>
    <contour>
      <point x="225" y="-198" type="curve"/>
      <point x="243" y="-210" type="line"/>
      <point x="262" y="-191"/>
      <point x="295" y="-153"/>
      <point x="295" y="-90" type="curve" smooth="yes"/>
      <point x="295" y="-70"/>
      <point x="280" y="-56"/>
      <point x="262" y="-56" type="curve" smooth="yes"/>
      <point x="244" y="-56"/>
      <point x="228" y="-72"/>
      <point x="228" y="-90" type="curve" smooth="yes"/>
      <point x="228" y="-107"/>
      <point x="240" y="-120"/>
      <point x="257" y="-123" type="curve"/>
      <point x="255" y="-144"/>
      <point x="247" y="-172"/>
    </contour>
  </outline>
</glyph>
<glyph name="ogonek" format="1">
  <advance width="369"/>
  <unicode hex="02DB"/>
  <outline>
    <contour>
      <point x="156" y="11" type="line"/>
      <point x="112" y="8" type="line"/>
      <point x="112" y="3" type="line"/>
      <point x="48" y="-108" type="line" smooth="yes"/>
      <point x="8" y="-180"/>
      <point x="56" y="-251"/>
      <point x="145" y="-226" type="curve" smooth="yes"/>
      <point x="164" y="-220"/>
      <point x="248" y="-190"/>
      <point x="249" y="-189" type="curve"/>
      <point x="231" y="-150" type="line"/>
      <point x="231" y="-150"/>
      <point x="189" y="-164"/>
      <point x="134" y="-184" type="curve" smooth="yes"/>
      <point x="85" y="-200"/>
      <point x="59" y="-168"/>
      <point x="85" y="-122" type="curve" smooth="yes"/>
      <point x="156" y="2" type="line"/>
    </contour>
  </outline>
</glyph>
<glyph name="dieresiscomb" format="1">
  <advance width="286"/>
  <unicode hex="0308"/>
  <outline>
    <contour>
      <point x="63" y="740" type="curve" smooth="yes"/>
      <point x="45" y="740"/>
      <point x="30" y="725"/>
      <point x="30" y="706" type="curve" smooth="yes"/>
      <point x="30" y="687"/>
      <point x="45" y="673"/>
      <point x="63" y="673" type="curve" smooth="yes"/>
      <point x="81" y="673"/>
      <point x="97" y="687"/>
      <point x="97" y="706" type="curve" smooth="yes"/>
      <point x="97" y="725"/>
      <point x="81" y="740"/>
    </contour>
    <contour>
      <point x="221" y="740" type="curve" smooth="yes"/>
      <point x="202" y="740"/>
      <point x="188" y="725"/>
      <point x="188" y="706" type="curve" smooth="yes"/>
      <point x="188" y="687"/>
      <point x="202" y="673"/>
      <point x="221" y="673" type="curve" smooth="yes"/>
      <point x="240" y="673"/>
      <point x="254" y="687"/>
      <point x="254" y="706" type="curve" smooth="yes"/>
      <point x="254" y="725"/>
      <point x="240" y="740"/>
    </contour>
  </outline>
</glyph>
<glyph name="tonos" format="1">
  <advance width="238"/>
  <unicode hex="0384"/>
  <outline>
    <contour>
      <point x="144" y="682" type="line"/>
      <point x="157" y="696"/>
      <point x="155" y="719"/>
      <point x="137" y="729" type="curve" smooth="yes"/>
      <point x="120" y="739"/>
      <point x="100" y="728"/>
      <point x="94" y="710" type="curve" smooth="yes"/>
      <point x="56" y="603" type="line"/>
      <point x="91" y="603" type="line"/>
    </contour>
  </outline>
</glyph>
<glyph name="upsilondieresistonos" format="1">
  <advance width="435"/>
  <unicode hex="03B0"/>
  <outline>
    <contour>
      <point x="402" y="184" type="curve" smooth="yes"/>
      <point x="402" y="499" type="line"/>
      <point x="348" y="499" type="line"/>
      <point x="348" y="174" type="line" smooth="yes"/>
      <point x="348" y="92"/>
      <point x="304" y="40"/>
      <point x="222" y="40" type="curve" smooth="yes"/>
      <point x="141" y="40"/>
      <point x="89" y="94"/>
      <point x="89" y="174" type="curve" smooth="yes"/>
      <point x="89" y="499" type="line"/>
      <point x="32" y="499" type="line"/>
      <point x="32" y="184" type="line" smooth="yes"/>
      <point x="32" y="75"/>
      <point x="96" y="-10"/>
      <point x="220" y="-10" type="curve" smooth="yes"/>
      <point x="344" y="-10"/>
      <point x="402" y="71"/>
    </contour>
    <contour>
      <point x="228" y="752" type="curve" smooth="yes"/>
      <point x="191" y="645" type="line"/>
      <point x="226" y="645" type="line"/>
      <point x="279" y="724" type="line"/>
      <point x="292" y="739"/>
      <point x="290" y="762"/>
      <point x="272" y="772" type="curve" smooth="yes"/>
      <point x="255" y="781"/>
      <point x="235" y="770"/>
    </contour>
    <contour>
      <point x="296" y="635" type="curve" smooth="yes"/>
      <point x="278" y="635"/>
      <point x="262" y="619"/>
      <point x="262" y="602" type="curve" smooth="yes"/>
      <point x="262" y="583"/>
      <point x="278" y="568"/>
      <point x="296" y="568" type="curve" smooth="yes"/>
      <point x="314" y="568"/>
      <point x="329" y="583"/>
      <point x="329" y="602" type="curve" smooth="yes"/>
      <point x="329" y="619"/>
      <point x="314" y="635"/>
    </contour>
    <contour>
      <point x="138" y="635" type="curve" smooth="yes"/>
      <point x="119" y="635"/>
      <point x="105" y="619"/>
      <point x="105" y="602" type="curve" smooth="yes"/>
      <point x="105" y="583"/>
      <point x="119" y="568"/>
      <point x="138" y="568" type="curve" smooth="yes"/>
      <point x="157" y="568"/>
      <point x="171" y="583"/>
      <point x="171" y="602" type="curve" smooth="yes"/>
      <point x="171" y="619"/>
      <point x="157" y="635"/>
    </contour>
  </outline>
</glyph>
<glyph name="wgrave" format="1">
  <advance width="705"/>
  <unicode hex="1E81"/>
  <outline>
    <contour>
      <point x="380" y="498" type="line"/>
      <point x="323" y="498" type="line"/>
      <point x="211" y="57" type="line"/>
      <point x="77" y="498" type="line"/>
      <point x="19" y="498" type="line"/>
      <point x="171" y="0" type="line"/>
      <point x="248" y="0" type="line"/>
      <point x="350" y="404" type="line"/>
      <point x="450" y="0" type="line"/>
      <point x="527" y="0" type="line"/>
      <point x="682" y="498" type="line"/>
      <point x="623" y="498" type="line"/>
      <point x="490" y="57" type="line"/>
    </contour>
    <contour>
      <point x="368" y="608" type="line"/>
      <point x="404" y="608" type="line"/>
      <point x="366" y="715" type="line" smooth="yes"/>
      <point x="360" y="734"/>
      <point x="339" y="745"/>
      <point x="322" y="735" type="curve" smooth="yes"/>
      <point x="304" y="725"/>
      <point x="303" y="702"/>
      <point x="315" y="687" type="curve"/>
    </contour>
  </outline>
</glyph>
<glyph name="ringcomb" format="1">
  <advance width="279"/>
  <outline>
    <contour>
      <point x="139" y="773" type="curve" smooth="yes"/>
      <point x="76" y="773"/>
      <point x="25" y="723"/>
      <point x="25" y="660" type="curve" smooth="yes"/>
      <point x="25" y="596"/>
      <point x="76" y="546"/>
      <point x="139" y="546" type="curve" smooth="yes"/>
      <point x="201" y="546"/>
      <point x="252" y="596"/>
      <point x="252" y="660" type="curve" smooth="yes"/>
      <point x="252" y="723"/>
      <point x="201" y="773"/>
    </contour>
    <contour>
      <point x="139" y="729" type="curve" smooth="yes"/>
      <point x="177" y="729"/>
      <point x="208" y="698"/>
      <point x="208" y="660" type="curve" smooth="yes"/>
      <point x="208" y="621"/>
      <point x="177" y="590"/>
      <point x="139" y="590" type="curve" smooth="yes"/>
      <point x="100" y="590"/>
      <point x="69" y="621"/>
      <point x="69" y="660" type="curve" smooth="yes"/>
      <point x="69" y="698"/>
      <point x="100" y="729"/>
    </contour>
  </outline>
</glyph>
